<svg xmlns="http://www.w3.org/2000/svg" viewBox="0 0 1900 810"><defs><style>.cls-1{fill:#1d1d1d;}.cls-2{fill:#69e4fa;}.cls-3{fill:#42b6e3;}.cls-4{fill:#3e87c4;}</style></defs><g id="Layer_2" data-name="Layer 2"><g id="visual"><rect class="cls-1" width="1900" height="810"/><path class="cls-2" d="M0,595.35l45.39-3.65c45.39-3.5,136.17-10.8,226.52-3.1,90.57,7.7,180.5,30.1,271.07,33.48,90.35,3.37,181.13-12.28,271.49-12.83,90.56-.4,180.5,14.45,271.06,12.15,90.36-2.15,181.14-21.6,271.49-25,90.57-3.38,180.5,9.32,271.07,5,90.35-4.33,181.13-25.38,226.52-36L1900,554.85V810H0Z"/><path class="cls-3" d="M0,634.36l45.39,10.53c45.39,10.66,136.17,31.72,226.52,40.5,90.57,8.77,180.5,5.26,271.07,1.35,90.35-3.78,181.13-7.83,271.49-9.86,90.56-2,180.5-2,271.06-1.75,90.36.13,181.14.67,271.49-10.8,90.57-11.48,180.5-35,271.07-45.23,90.35-10.39,181.13-7.69,226.52-6.34l45.39,1.35V796.36H0Z"/><path class="cls-4" d="M0,669.27l45.39-1.08c45.39-1.21,136.17-3.37,226.52,0,90.57,3.38,180.5,12.29,271.07,14.31,90.35,2,181.13-2.83,271.49,2.3,90.56,5.13,180.5,20.52,271.06,22,90.36,1.62,181.14-10.53,271.49-20,90.57-9.45,180.5-16.2,271.07-18,90.35-1.89,181.13,1.35,226.52,2.83l45.39,1.62v102.6H0Z"/></g></g></svg>